<svg width="21" height="20" viewBox="0 0 21 20" fill="none" xmlns="http://www.w3.org/2000/svg">
<path d="M10.9333 5.83341H9.2666V9.16675H5.93327V10.8334H9.2666V14.1667H10.9333V10.8334H14.2666V9.16675H10.9333V5.83341ZM10.0999 1.66675C5.49993 1.66675 1.7666 5.40008 1.7666 10.0001C1.7666 14.6001 5.49993 18.3334 10.0999 18.3334C14.6999 18.3334 18.4333 14.6001 18.4333 10.0001C18.4333 5.40008 14.6999 1.66675 10.0999 1.66675ZM10.0999 16.6667C6.42493 16.6667 3.43327 13.6751 3.43327 10.0001C3.43327 6.32508 6.42493 3.33341 10.0999 3.33341C13.7749 3.33341 16.7666 6.32508 16.7666 10.0001C16.7666 13.6751 13.7749 16.6667 10.0999 16.6667Z" fill="white"/>
</svg>
