<svg width="19" height="20" viewBox="0 0 19 20" fill="none" xmlns="http://www.w3.org/2000/svg">
<g clip-path="url(#clip0_2604_23002)">
<path d="M8.79446 3.771H3.34392C2.9309 3.771 2.53479 3.93507 2.24274 4.22712C1.95069 4.51917 1.78662 4.91527 1.78662 5.32829V16.2294C1.78662 16.6424 1.95069 17.0385 2.24274 17.3305C2.53479 17.6226 2.9309 17.7867 3.34392 17.7867H14.245C14.658 17.7867 15.0541 17.6226 15.3462 17.3305C15.6382 17.0385 15.8023 16.6424 15.8023 16.2294V10.7788" stroke="#3ABE29" stroke-width="1.5573" stroke-linecap="round" stroke-linejoin="round"/>
<path d="M14.6343 2.60293C14.9441 2.29317 15.3642 2.11914 15.8023 2.11914C16.2404 2.11914 16.6605 2.29317 16.9702 2.60293C17.28 2.9127 17.454 3.33283 17.454 3.7709C17.454 4.20898 17.28 4.62911 16.9702 4.93888L9.57309 12.336L6.4585 13.1147L7.23714 10.0001L14.6343 2.60293Z" stroke="#3ABE29" stroke-width="1.5573" stroke-linecap="round" stroke-linejoin="round"/>
</g>
<defs>
<clipPath id="clip0_2604_23002">
<rect width="18.6876" height="18.6876" fill="white" transform="translate(0.229492 0.65625)"/>
</clipPath>
</defs>
</svg>
