<svg width="20" height="20" viewBox="0 0 20 20" fill="none" xmlns="http://www.w3.org/2000/svg">
<path d="M2.71143 5.32812H4.26872H16.7271" stroke="#FF0A0A" stroke-width="1.5573" stroke-linecap="round" stroke-linejoin="round"/>
<path d="M6.6045 5.32797V3.77068C6.6045 3.35765 6.76857 2.96155 7.06062 2.6695C7.35267 2.37745 7.74878 2.21338 8.1618 2.21338H11.2764C11.6894 2.21338 12.0855 2.37745 12.3776 2.6695C12.6696 2.96155 12.8337 3.35765 12.8337 3.77068V5.32797M15.1696 5.32797V16.229C15.1696 16.6421 15.0056 17.0382 14.7135 17.3302C14.4215 17.6223 14.0254 17.7863 13.6123 17.7863H5.82585C5.41283 17.7863 5.01673 17.6223 4.72468 17.3302C4.43263 17.0382 4.26855 16.6421 4.26855 16.229V5.32797H15.1696Z" stroke="#FF0A0A" stroke-width="1.5573" stroke-linecap="round" stroke-linejoin="round"/>
<path d="M8.16211 9.22119V13.8931" stroke="#FF0A0A" stroke-width="1.5573" stroke-linecap="round" stroke-linejoin="round"/>
<path d="M11.2764 9.22119V13.8931" stroke="#FF0A0A" stroke-width="1.5573" stroke-linecap="round" stroke-linejoin="round"/>
</svg>
